<svg xmlns="http://www.w3.org/2000/svg" xmlns:xlink="http://www.w3.org/1999/xlink" viewBox="0 0 15 7"><defs><style>.cls-1{fill:none;}.cls-2{opacity:0.5;}.cls-3{clip-path:url(#clip-path);}.cls-4{clip-path:url(#clip-path-2);}.cls-5,.cls-6{fill:#fcc;}.cls-5{fill-rule:evenodd;}</style><clipPath id="clip-path"><rect class="cls-1" x="26" y="23" width="1160" height="2285"/></clipPath><clipPath id="clip-path-2"><rect class="cls-1" width="15" height="7"/></clipPath></defs><title>アートボード 22</title><g id="gurid"><g class="cls-4"><path class="cls-5" d="M13.27,6s.08-.36.15-.4a.41.41,0,0,1,.42,0c0,.05,0,.36,0,.36H14V5.6s.15-.39.4-.48.43.42.43.42,0,.46-.08.46h.12l0-.37a.45.45,0,0,1,.43.08s.06.29.08.29h1.25s.17-.64.5-.6l.12,0s0,.27,0,.31-.07.33-.1.33H27.35s0-.3,0-.33l.12-.1c.28,0,.43.43.48.43h1.32a2.36,2.36,0,0,0,.42,0V6h.11s0-.34,0-.37.17-.49.42-.4.41.5.41.5V6h.15a2.53,2.53,0,0,0,0-.28.53.53,0,0,1,.41,0s.05.25.07.25h.5s-.08-.51-.3-.68A2.11,2.11,0,0,0,30.7,5a.7.7,0,0,0-.53-.3.74.74,0,0,0-.58.2s0,0-.15,0a1.07,1.07,0,0,0-.37.12l-.13-.13a.88.88,0,0,0,.15-.35V4.37a.66.66,0,0,0,.26-.55.68.68,0,0,0-.24-.51.84.84,0,0,0-.1-.72.65.65,0,0,0-.46-.31,1.32,1.32,0,0,0-.3-.42.9.9,0,0,0-.39-.16,1.18,1.18,0,0,0-.35,0s-.08-.18-.5-.24a.89.89,0,0,0-.71.24.78.78,0,0,0-.58,0,.69.69,0,0,0-.39.48s0,0-.14.06a1.21,1.21,0,0,0-.25.29l-.23,0h0a1,1,0,0,0-.06-.39C24.59,2,24.57,2,24.57,2a.67.67,0,0,0-.06-.61A.69.69,0,0,0,24,1.06a.86.86,0,0,0-.47-.58.66.66,0,0,0-.56,0,1.06,1.06,0,0,0-.48-.21.75.75,0,0,0-.42,0,1.14,1.14,0,0,0-.32.16s-.19-.13-.59,0a.93.93,0,0,0-.51.56.83.83,0,0,0-.57.3,1.26,1.26,0,0,0-.23.61s-.23,0-.31.11a2.41,2.41,0,0,1-.57.39h0V2.5h0s.24-.24.13-.31.27-.06.27-.06A.72.72,0,0,0,19,1.64a.79.79,0,0,0-.59,0,.94.94,0,0,0-.71-.26.64.64,0,0,0-.51.24,1.39,1.39,0,0,0-.35,0,.71.71,0,0,0-.39.16,1.09,1.09,0,0,0-.31.41s-.21,0-.47.3a.84.84,0,0,0-.12.72.68.68,0,0,0-.25.5.69.69,0,0,0,.25.56s0,0,0,.15a1.18,1.18,0,0,0,.15.36h0l-.18.15a1.14,1.14,0,0,0-.37-.12c-.14,0-.16,0-.16,0a.75.75,0,0,0-.58-.24.71.71,0,0,0-.52.27,1,1,0,0,0-.74.15.83.83,0,0,0-.31.68s0,.35-.12.35ZM25.59,4.34a1.21,1.21,0,0,1-.2-.09l0-.08L25.45,4a1.48,1.48,0,0,1,.37-.24s-.08.36-.08.36l-.12.2Zm.13.06,0,0,.09-.16c.33-.11.52,0,.57.29l-.1.19Zm.6-.35c.24-.31.77,0,.59.34a1.37,1.37,0,0,0-.4,0h0A1.1,1.1,0,0,0,26.32,4.05Zm.54,1a5.39,5.39,0,0,0-.5-.33l.11-.18c.32-.1.49,0,.54.36l-.12.15Zm.5,0-.13.14-.08,0L27,5.15v0l.13-.2.29-.23A1.43,1.43,0,0,1,27.36,5.11Zm0-.67c-.12.14-.26.27-.26.27a.87.87,0,0,0,0-.13l0-.07a.5.5,0,0,0,.09-.19.13.13,0,0,0,.13,0,.1.1,0,0,0,0-.16.13.13,0,0,0-.16,0,.14.14,0,0,0,0-.06A.49.49,0,0,0,27,3.9c.09-.17-.09-.27-.21-.12a.48.48,0,0,0-.22,0h-.06a.13.13,0,0,0-.08-.13.12.12,0,0,0-.15.08.12.12,0,0,0,0,.13.46.46,0,0,0-.13.17h-.08l-.13,0s.05-.17.11-.34a1.61,1.61,0,0,1,.33-.53,1.25,1.25,0,0,1,.69-.05.77.77,0,0,1,.41.23,1.31,1.31,0,0,1,.26.61A1.37,1.37,0,0,1,27.39,4.44Zm1.11.26a1.1,1.1,0,0,1-.42.22l-.17.16a.53.53,0,0,0-.21,0c-.12,0-.15,0-.15,0a.64.64,0,0,0,0-.27,1.74,1.74,0,0,0,0-.21l.3-.44a.21.21,0,0,0,.22.12.39.39,0,0,0,.22-.08l.28.11A.35.35,0,0,1,28.5,4.7Zm.4-.9c.08.25-.25.4-.25.4a1.91,1.91,0,0,1-.35-.15.29.29,0,0,0-.14-.18.27.27,0,0,0-.27,0,.44.44,0,0,0,0-.15.52.52,0,0,0-.05-.2.24.24,0,0,0,.17,0c.1,0,.14-.14.14-.14a1,1,0,0,1,.18-.06.8.8,0,0,1,.25,0A.86.86,0,0,1,28.9,3.8Zm-.26-1a.44.44,0,0,1,0,.42,2.56,2.56,0,0,0-.49.06.18.18,0,0,0-.2-.08c-.13,0-.16.17-.16.17l0-.07a1.28,1.28,0,0,0-.12-.18.2.2,0,0,0,.18-.07c.08-.09,0-.14,0-.14s0,0,.1-.15a.84.84,0,0,1,.27-.16S28.53,2.64,28.64,2.83Zm-1.22-.39c0-.07,0-.26,0-.26a.44.44,0,0,1,.48,0,.38.38,0,0,1,.15.36l-.21.17-.11.12s-.06-.07-.19,0A.18.18,0,0,0,27.5,3a.63.63,0,0,0-.16-.1h0l0,0a.19.19,0,0,0,.15-.16c0-.15-.09-.17-.09-.17A1,1,0,0,0,27.42,2.44ZM27,1.86c.23,0,.39.27.39.27a.53.53,0,0,1,0,.3c-.06.15-.08.15-.08.15s-.06,0-.11.11a.15.15,0,0,0,0,.17,1.1,1.1,0,0,0-.22,0h-.09a.21.21,0,0,0,.09-.22.21.21,0,0,0-.17-.14,2.77,2.77,0,0,0-.16-.45A.45.45,0,0,1,27,1.86Zm-1,.22a.86.86,0,0,1,.51.08.75.75,0,0,1,.12.21.72.72,0,0,1,0,.17.21.21,0,0,0-.07.19.24.24,0,0,0,.13.12.77.77,0,0,0-.21,0c-.1,0-.12.09-.12.09a.28.28,0,0,0-.11-.24.35.35,0,0,0-.24,0,1.17,1.17,0,0,1-.29-.23S25.68,2.13,26,2.08Zm-.65.76a.38.38,0,0,1,.36-.25l.22.19a.35.35,0,0,0,0,.23.19.19,0,0,0,.21.12l-.26.47-.22.06a.75.75,0,0,0-.23.15.32.32,0,0,0-.05-.13.56.56,0,0,0-.14-.17l.07-.21A.93.93,0,0,1,25.3,2.84Zm-.62.93c.31-.2.51-.14.66.19l-.07.17-.11,0L24.69,4a.09.09,0,0,0-.05,0Zm-3.14-.12a.78.78,0,0,0-.22,0l-.05-.07,0-.18a1.18,1.18,0,0,1,.2-.38l.11.34v.26Zm0-1.42a1.39,1.39,0,0,1,.56-.37.79.79,0,0,1,.48,0,1.29,1.29,0,0,1,.55.4,1.61,1.61,0,0,1,0,.61,2.6,2.6,0,0,1-.1.35A.34.34,0,0,0,23,3.13a.21.21,0,0,0-.07,0,.51.51,0,0,0,0-.21A.12.12,0,0,0,23,2.79a.11.11,0,0,0-.08-.15.1.1,0,0,0-.13.06l-.05,0a.46.46,0,0,0-.23-.08c0-.18-.22-.18-.23,0a.42.42,0,0,0-.23.06l0,0a.14.14,0,0,0-.14-.07.12.12,0,0,0-.09.14.12.12,0,0,0,.09.09.65.65,0,0,0,0,.21l-.07.05-.09.08a1.8,1.8,0,0,1-.08-.35A1.43,1.43,0,0,1,21.58,2.23Zm.71,1.39c-.2,0-.4,0-.61,0h0V3.45c.23-.27.43-.27.65,0Zm.07-.36h0A1.21,1.21,0,0,0,22,3.05a.36.36,0,0,1,.7,0A1.22,1.22,0,0,0,22.36,3.26Zm.69.38h0c-.2,0-.41,0-.61,0V3.41c.23-.23.43-.22.66,0Zm.39,0-.06.07-.21,0,0,0V3.41l.13-.34a1.39,1.39,0,0,1,.19.39Zm.74.2h-.06a4,4,0,0,0-.5-.1l-.07-.09,0-.17c.31-.21.51-.16.67.17Zm.06-1.29a1,1,0,0,1-.25.4,1.8,1.8,0,0,1-.06.22.56.56,0,0,0-.21.07c-.1,0-.11.09-.11.09a.75.75,0,0,0-.11-.25,1.52,1.52,0,0,1-.15-.17l0-.53a.22.22,0,0,0,.26,0,.35.35,0,0,0,.14-.19l.3,0A.36.36,0,0,1,24.24,2.54Zm-.13-1c.2.17,0,.46,0,.46a1.4,1.4,0,0,1-.38,0A.31.31,0,0,0,23.5,2a.26.26,0,0,0-.22.14A.25.25,0,0,0,23.22,2a.64.64,0,0,0-.15-.15.22.22,0,0,0,.17,0,.24.24,0,0,0,.06-.2l.11-.12a.69.69,0,0,1,.23-.12A.91.91,0,0,1,24.11,1.58ZM23.38.86a.46.46,0,0,1,.2.37,2.21,2.21,0,0,0-.38.3.21.21,0,0,0-.23,0c-.1.08,0,.23,0,.23l-.08-.05a1.21,1.21,0,0,0-.18-.11.15.15,0,0,0,.11-.14c0-.11,0-.14,0-.14s0,0,0-.16A.72.72,0,0,1,22.89.9.61.61,0,0,1,23.38.86ZM22.43.64a.42.42,0,0,1,.33.24s-.07.17-.09.25a.63.63,0,0,0,0,.14s-.09,0-.17.11a.18.18,0,0,0,0,.22h-.24a.18.18,0,0,0,0-.22c-.08-.13-.17-.11-.17-.11a1.2,1.2,0,0,0,0-.14c0-.08-.08-.25-.08-.25A.41.41,0,0,1,22.43.64Zm-1,.2a.62.62,0,0,1,.48.05.63.63,0,0,1,.13.28c0,.15,0,.16,0,.16s-.05,0,0,.15a.16.16,0,0,0,.12.14,1.14,1.14,0,0,0-.2.1l-.07.05a.21.21,0,0,0,0-.23.21.21,0,0,0-.22,0,2.93,2.93,0,0,0-.37-.31A.44.44,0,0,1,21.41.84Zm-.75.7a.84.84,0,0,1,.48-.19.7.7,0,0,1,.21.13.44.44,0,0,1,.12.13.22.22,0,0,0,0,.19.26.26,0,0,0,.17.05.52.52,0,0,0-.15.14.25.25,0,0,0-.06.13A.29.29,0,0,0,21.24,2a.29.29,0,0,0-.21.08,1.4,1.4,0,0,1-.38,0S20.45,1.7,20.66,1.54Zm0,.57.3.05a.3.3,0,0,0,.13.19.2.2,0,0,0,.25,0l0,.53-.16.17a.65.65,0,0,0-.11.23A.42.42,0,0,0,21,3.19a.76.76,0,0,0-.21-.07l-.05-.22a.94.94,0,0,1-.23-.4A.36.36,0,0,1,20.67,2.11Zm.45,1.34,0,.18a.34.34,0,0,0-.09.08l-.49.09-.07,0a1.15,1.15,0,0,0-.06-.17C20.62,3.28,20.82,3.23,21.12,3.45Zm-4,1.5a.27.27,0,0,0-.15,0,.55.55,0,0,0-.22,0l-.16-.17a.89.89,0,0,1-.41-.22.35.35,0,0,1-.07-.42l.29-.1a.31.31,0,0,0,.22.09A.2.2,0,0,0,16.8,4l.3.44s0,.1,0,.23A.61.61,0,0,0,17.09,5Zm-.16-1.13a1.14,1.14,0,0,1,.28-.6A.69.69,0,0,1,17.63,3a1.21,1.21,0,0,1,.68.06,1.57,1.57,0,0,1,.31.54c.06.16.11.34.11.34s-.08,0-.13,0h-.08a.41.41,0,0,0-.13-.17.11.11,0,0,0,0-.12c0-.07-.08-.07-.15,0s-.09.16-.08.16h-.07a.53.53,0,0,0-.22,0c-.11-.15-.29-.08-.21.09a.73.73,0,0,0-.16.15.11.11,0,0,1,0,.06.11.11,0,0,0-.15,0,.1.1,0,0,0,0,.16.14.14,0,0,0,.13,0,.53.53,0,0,0,.09.19l0,.06a.66.66,0,0,0,0,.13l-.26-.26A1.71,1.71,0,0,1,16.93,3.82ZM18.34,4a1.09,1.09,0,0,0-.19.35h0a.9.9,0,0,0-.39,0A.35.35,0,0,1,18.34,4Zm-.69,1.09-.17.11-.08,0L17.28,5c-.06-.08,0-.41,0-.42l.28.24.12.2ZM17.78,5h0l-.11-.16c.06-.33.23-.44.54-.35l.12.19A4.92,4.92,0,0,0,17.78,5Zm1.15-.64a5.44,5.44,0,0,0-.54.27l-.11-.18c.07-.31.26-.4.59-.28l.07.17Zm.33-.14-.19.08h0l-.12-.2-.07-.36a1.48,1.48,0,0,1,.37.24l.07.17ZM20,3.73a1.16,1.16,0,0,0,0,.18L20,4c-.16,0-.32.1-.47.15l-.12,0-.06-.18C19.47,3.58,19.68,3.52,20,3.73Zm-.61-1a.85.85,0,0,1,0,.47l.06.21a1.14,1.14,0,0,0-.14.15.38.38,0,0,0-.05.14A.52.52,0,0,0,19,3.6l-.22-.07-.25-.48a.21.21,0,0,0,.22-.11.3.3,0,0,0,0-.23L19,2.52A.37.37,0,0,1,19.37,2.78Zm-1.12-.71a.92.92,0,0,1,.5-.06c.27.05.25.4.25.4a1.34,1.34,0,0,1-.31.23.29.29,0,0,0-.23,0,.25.25,0,0,0-.11.24.27.27,0,0,0-.12-.09.56.56,0,0,0-.22,0,.2.2,0,0,0,.12-.12.19.19,0,0,0-.05-.19.72.72,0,0,1,0-.17A.61.61,0,0,1,18.25,2.07Zm-.9,0a.55.55,0,0,1,.4-.26.46.46,0,0,1,.36.21,3,3,0,0,0-.17.45.18.18,0,0,0-.17.12.22.22,0,0,0,.08.23h-.08a1.17,1.17,0,0,0-.23,0,.19.19,0,0,0,0-.19c0-.11-.12-.1-.12-.1s0,0-.08-.14A.67.67,0,0,1,17.35,2Zm-.6,0a.42.42,0,0,1,.47,0s0,.18.05.26l.06.15s-.09,0-.09.16a.18.18,0,0,0,.15.17l-.05,0h0a.76.76,0,0,0-.16.09.19.19,0,0,0-.08-.21c-.13-.07-.2,0-.2,0l-.11-.12-.2-.16A.37.37,0,0,1,16.75,2.07ZM16,2.71c.11-.2.43-.2.43-.2a.59.59,0,0,1,.27.18c.1.11.09.14.09.14s0,0,0,.14a.18.18,0,0,0,.18.06,1.32,1.32,0,0,0-.12.19l0,.07a.25.25,0,0,0-.16-.18.19.19,0,0,0-.2.08,3.18,3.18,0,0,0-.49-.07A.46.46,0,0,1,16,2.71Zm-.28,1a.93.93,0,0,1,.31-.39,1,1,0,0,1,.26,0,.7.7,0,0,1,.16.06.25.25,0,0,0,.15.14.18.18,0,0,0,.17,0,.67.67,0,0,0-.06.2.31.31,0,0,0,0,.15.3.3,0,0,0-.28,0,.25.25,0,0,0-.13.18,1.58,1.58,0,0,1-.37.14S15.67,3.92,15.76,3.66Z"/><path class="cls-5" d="M-1.45,6s.07-.36.15-.4a.41.41,0,0,1,.42,0A3.36,3.36,0,0,0-.86,6h.13l0-.4s.14-.39.4-.48.42.42.42.42A2.36,2.36,0,0,1,0,6H.15l.06-.37a.43.43,0,0,1,.42.08S.69,6,.72,6H2s.16-.64.49-.6l.13,0s0,.27,0,.31S2.48,6,2.45,6H12.61a2,2,0,0,0,0-.33l.13-.1c.27,0,.42.43.47.43h1.32a2.55,2.55,0,0,0,.43,0V6h.11a2.55,2.55,0,0,1-.19-.37s-.1-.48.16-.4,0,.49,0,.49V6h1V5.72a.59.59,0,0,1,.43,0s0,.25.05.25H17s-.09-.51-.3-.68A2.2,2.2,0,0,0,16,5a.69.69,0,0,0-.52-.3.72.72,0,0,0-.58.2s0,0-.16,0a1,1,0,0,0-.36.12l-.13-.13a1,1,0,0,0,.15-.35.51.51,0,0,0,0-.15.69.69,0,0,0,.27-.55.71.71,0,0,0-.25-.51.8.8,0,0,0-.1-.72.64.64,0,0,0-.45-.31,1.26,1.26,0,0,0-.31-.42.81.81,0,0,0-.38-.16,1.18,1.18,0,0,0-.35,0,.67.67,0,0,0-.5-.24.89.89,0,0,0-.71.24.78.78,0,0,0-.58,0,.69.69,0,0,0-.39.48s0,0-.14.06a1.08,1.08,0,0,0-.26.29l-.23,0h0a1.11,1.11,0,0,0-.05-.39C9.87,2,9.84,2,9.84,2a.67.67,0,0,0-.06-.61.69.69,0,0,0-.48-.31A.83.83,0,0,0,8.84.48a.68.68,0,0,0-.57,0A.89.89,0,0,0,7.79.23a.73.73,0,0,0-.41,0,1,1,0,0,0-.31.16S6.9.3,6.51.46A.86.86,0,0,0,6,1a.73.73,0,0,0-.49.3.71.71,0,0,0-.08.61s.33,0,.26.11.29.39.29.39H6V2.5H6s-.62-.24-.74-.31a1.46,1.46,0,0,0-.44-.06,1,1,0,0,0-.47-.49.9.9,0,0,0-.63,0A1,1,0,0,0,3,1.34a.68.68,0,0,0-.52.24,1.39,1.39,0,0,0-.35,0,.68.68,0,0,0-.39.16,1.18,1.18,0,0,0-.32.41s-.21,0-.46.3a.84.84,0,0,0-.12.72.68.68,0,0,0-.26.5.72.72,0,0,0,.26.56v.15A.94.94,0,0,0,1,4.75H1L.81,4.9a1.06,1.06,0,0,0-.37-.12c-.14,0-.16,0-.16,0A.75.75,0,0,0-.3,4.55a.71.71,0,0,0-.52.27A1,1,0,0,0-1.56,5a.83.83,0,0,0-.31.68S-1.93,6-2,6ZM10.86,4.34a1.11,1.11,0,0,1-.19-.09l0-.08L10.73,4a1.32,1.32,0,0,1,.37-.24s-.08.36-.08.36l-.13.2ZM11,4.4l0,0,.08-.16c.34-.11.52,0,.58.29l-.11.19A5.45,5.45,0,0,0,11,4.4Zm.59-.35c.24-.31.78,0,.6.34a1.43,1.43,0,0,0-.41,0h0A1.29,1.29,0,0,0,11.59,4.05Zm.54,1a5.39,5.39,0,0,0-.5-.33l.12-.18c.32-.1.48,0,.53.36l-.11.15Zm.5,0-.12.14-.09,0-.16-.13v0l.14-.2.28-.23A1.15,1.15,0,0,1,12.63,5.11Zm0-.67a2.73,2.73,0,0,1-.25.27s0-.07,0-.13l0-.07a.37.37,0,0,0,.09-.19.13.13,0,0,0,.13,0,.11.11,0,0,0,0-.16.12.12,0,0,0-.15,0s0,0,0-.06a.41.41,0,0,0-.16-.16c.09-.17-.09-.27-.21-.12a.45.45,0,0,0-.22,0h-.06a.13.13,0,0,0-.08-.13.13.13,0,0,0-.15.08.14.14,0,0,0,0,.13.46.46,0,0,0-.13.17h-.08L11.2,4l.12-.34a1.61,1.61,0,0,1,.33-.53,1.22,1.22,0,0,1,.68-.05.73.73,0,0,1,.41.23,1.35,1.35,0,0,1,.27.61A1.41,1.41,0,0,1,12.66,4.44Zm1.11.26a1,1,0,0,1-.41.22l-.18.16A.47.47,0,0,0,13,5a.27.27,0,0,0-.15,0,.64.64,0,0,0,0-.27,1.74,1.74,0,0,0,0-.21l.31-.44a.19.19,0,0,0,.21.12.46.46,0,0,0,.23-.08l.28.11A.35.35,0,0,1,13.77,4.7Zm.41-.9c.08.25-.25.4-.25.4a1.8,1.8,0,0,1-.36-.15.29.29,0,0,0-.14-.18.27.27,0,0,0-.27,0,.44.44,0,0,0,0-.15.62.62,0,0,0,0-.2.22.22,0,0,0,.17,0c.09,0,.14-.14.14-.14a.69.69,0,0,1,.17-.06.77.77,0,0,1,.25,0A.92.92,0,0,1,14.18,3.8Zm-.26-1a.46.46,0,0,1,0,.42,2.4,2.4,0,0,0-.48.06.2.2,0,0,0-.21-.08c-.13,0-.16.17-.16.17l0-.07a1.28,1.28,0,0,0-.12-.18.22.22,0,0,0,.19-.07c.07-.09,0-.14,0-.14s0,0,.09-.15a1,1,0,0,1,.27-.16S13.81,2.64,13.92,2.83ZM12.7,2.44c0-.07.05-.26.05-.26a.42.42,0,0,1,.47,0,.37.37,0,0,1,.16.36l-.21.17-.11.12s-.07-.07-.2,0a.19.19,0,0,0-.08.21.79.79,0,0,0-.17-.1h0l0,0s.16,0,.17-.16-.1-.17-.1-.17Zm-.47-.58c.24,0,.39.27.39.27a.59.59,0,0,1,0,.3c-.06.15-.09.15-.09.15s-.05,0-.11.11a.14.14,0,0,0,0,.17,1.23,1.23,0,0,0-.23,0h-.08a.23.23,0,0,0,.09-.22c0-.12-.18-.14-.18-.14a3.45,3.45,0,0,0-.15-.45A.42.42,0,0,1,12.23,1.86Zm-1,.22a.84.84,0,0,1,.5.08.69.69,0,0,1,.13.21.72.72,0,0,1,0,.17.21.21,0,0,0-.07.19.21.21,0,0,0,.13.12.89.89,0,0,0-.22,0,.27.27,0,0,0-.12.09.25.25,0,0,0-.11-.24.32.32,0,0,0-.23,0,1.36,1.36,0,0,1-.3-.23S11,2.13,11.23,2.08Zm-.65.76a.36.36,0,0,1,.34-.25l.24.19a.3.3,0,0,0,0,.23.2.2,0,0,0,.22.12l-.26.47-.23.06a.79.79,0,0,0-.22.15.29.29,0,0,0-.06-.13.44.44,0,0,0-.14-.17l.07-.21A.87.87,0,0,1,10.58,2.84ZM10,3.77c.31-.2.51-.14.66.19a1.22,1.22,0,0,0-.07.17l-.11,0L10,4l0,0ZM6.81,3.65l-.22,0,0-.07,0-.18a1.2,1.2,0,0,1,.19-.38l.12.34v.24Zm0-1.42a1.47,1.47,0,0,1,.56-.37.79.79,0,0,1,.48,0,1.17,1.17,0,0,1,.55.4,1.43,1.43,0,0,1,0,.61c0,.17-.09.34-.09.35l-.09-.09a.21.21,0,0,0-.07,0,.51.51,0,0,0,0-.21.12.12,0,0,0,.09-.08.12.12,0,0,0-.08-.15A.12.12,0,0,0,8,2.7l0,0a.42.42,0,0,0-.22-.08c0-.18-.22-.18-.23,0a.4.4,0,0,0-.23.06l0,0a.14.14,0,0,0-.14-.07A.1.1,0,0,0,7,2.77a.12.12,0,0,0,.09.09.53.53,0,0,0,0,.21L7,3.12l-.09.08a2.37,2.37,0,0,1-.09-.35A1.6,1.6,0,0,1,6.85,2.23Zm.72,1.39c-.21,0-.41,0-.61,0h0a1.09,1.09,0,0,0,0-.18c.23-.27.43-.27.65,0Zm.07-.36a0,0,0,0,0,0,0h0a1.08,1.08,0,0,0-.33-.21.35.35,0,0,1,.69,0A1.09,1.09,0,0,0,7.64,3.26Zm.68.38h0q-.3,0-.6,0V3.41c.22-.23.43-.22.65,0Zm.39,0-.05.07-.22,0,0,0V3.41a3.42,3.42,0,0,1,.13-.34,1.19,1.19,0,0,1,.18.39Zm.74.2H9.39a4.26,4.26,0,0,0-.49-.1l-.08-.09a1,1,0,0,0,0-.17c.3-.21.51-.16.66.17Zm.06-1.29a1,1,0,0,1-.25.4l0,.22A.51.51,0,0,0,9,3.23c-.1,0-.12.09-.12.09a.57.57,0,0,0-.11-.25L8.62,2.9l0-.53a.21.21,0,0,0,.25,0,.3.3,0,0,0,.14-.19l.3,0A.36.36,0,0,1,9.51,2.54Zm-.13-1c.2.17,0,.46,0,.46a1.5,1.5,0,0,1-.39,0A.27.27,0,0,0,8.78,2a.27.27,0,0,0-.23.14A.28.28,0,0,0,8.5,2a.82.82,0,0,0-.16-.15.25.25,0,0,0,.18,0,.22.22,0,0,0,.05-.2,1,1,0,0,1,.12-.12.59.59,0,0,1,.22-.12A.88.88,0,0,1,9.38,1.58ZM8.66.86a.44.44,0,0,1,.19.37,2.21,2.21,0,0,0-.38.3.21.21,0,0,0-.23,0c-.09.08,0,.23,0,.23l-.07-.05a1.14,1.14,0,0,0-.19-.11.15.15,0,0,0,.12-.14c0-.11,0-.14,0-.14s0,0,0-.16A.6.6,0,0,1,8.17.9.6.6,0,0,1,8.66.86Zm-1-.22A.4.4,0,0,1,8,.88s-.07.17-.09.25a.63.63,0,0,0,0,.14s-.09,0-.16.11a.18.18,0,0,0,0,.22H7.53a.18.18,0,0,0,0-.22c-.07-.13-.17-.11-.17-.11a.58.58,0,0,0,0-.14L7.3.88A.42.42,0,0,1,7.71.64Zm-1,.2a.62.62,0,0,1,.48.05.6.6,0,0,1,.14.28c0,.15,0,.16,0,.16s-.06,0,0,.15a.16.16,0,0,0,.12.14,1.14,1.14,0,0,0-.2.1l-.06.05a.24.24,0,0,0,0-.23.2.2,0,0,0-.22,0,2.62,2.62,0,0,0-.38-.31A.44.44,0,0,1,6.68.84Zm-.75.7a.87.87,0,0,1,.48-.19.7.7,0,0,1,.22.13.48.48,0,0,1,.11.13.21.21,0,0,0,0,.19A.25.25,0,0,0,7,1.85.65.65,0,0,0,6.8,2a.28.28,0,0,0,0,.13A.29.29,0,0,0,6.52,2a.33.33,0,0,0-.22.08,1.44,1.44,0,0,1-.38,0S5.72,1.7,5.93,1.54Zm0,.57.3.05a.3.3,0,0,0,.14.19.2.2,0,0,0,.25,0l0,.53-.15.17a.58.58,0,0,0-.12.23s0,0-.11-.09a.89.89,0,0,0-.21-.07L6,2.9a.94.94,0,0,1-.23-.4A.38.38,0,0,1,5.94,2.11ZM6.4,3.45a1.13,1.13,0,0,0,0,.18l-.08.08-.5.09-.06,0-.06-.17C5.89,3.28,6.1,3.23,6.4,3.45ZM2.36,5s0,0-.15,0A.47.47,0,0,0,2,5L1.83,4.8a.89.89,0,0,1-.41-.22.36.36,0,0,1-.06-.42l.29-.1a.3.3,0,0,0,.21.09A.2.2,0,0,0,2.07,4l.31.44,0,.23A.61.61,0,0,0,2.36,5ZM2.2,3.82a1.23,1.23,0,0,1,.28-.6A.69.69,0,0,1,2.9,3a1.25,1.25,0,0,1,.69.06,1.75,1.75,0,0,1,.31.54L4,3.94s-.08,0-.13,0H3.79a.44.44,0,0,0-.12-.17.14.14,0,0,0,0-.12c0-.07-.09-.07-.15,0s-.1.16-.09.16H3.41a.57.57,0,0,0-.23,0c-.11-.15-.29-.08-.2.09A.46.46,0,0,0,2.82,4a.33.33,0,0,1,0,.06.11.11,0,0,0-.15,0,.1.1,0,0,0,0,.16.14.14,0,0,0,.13,0,.82.82,0,0,0,.09.19l0,.06s0,.13,0,.13l-.26-.26A1.71,1.71,0,0,1,2.2,3.82ZM3.62,4a.92.92,0,0,0-.19.35h0a1,1,0,0,0-.4,0C2.85,4,3.38,3.65,3.62,4Zm-.7,1.09-.16.11-.09,0L2.56,5a1.11,1.11,0,0,1,0-.42l.29.24.12.2ZM3.05,5H3l-.1-.16c0-.33.22-.44.54-.35l.11.19C3.38,4.76,3.21,4.86,3.05,5Zm1.16-.64a5.6,5.6,0,0,0-.55.27l-.1-.18c.07-.31.25-.4.58-.28l.08.17S4.21,4.32,4.21,4.33Zm.33-.14-.2.08h0l-.12-.2L4.11,3.7a1.32,1.32,0,0,1,.37.24l.07.17Zm.72-.46,0,.18,0,0-.48.15-.11,0L4.59,3.9C4.74,3.58,5,3.52,5.26,3.73Zm-.6-1a1,1,0,0,1,0,.47,1.66,1.66,0,0,1,.06.21,1.14,1.14,0,0,0-.14.15.34.34,0,0,0-.06.14A.52.52,0,0,0,4.3,3.6l-.22-.07-.25-.48a.22.22,0,0,0,.23-.11.37.37,0,0,0,0-.23l.23-.19A.39.39,0,0,1,4.66,2.78ZM3.52,2.07A.92.92,0,0,1,4,2c.28.05.25.4.25.4a1.36,1.36,0,0,1-.3.23.31.31,0,0,0-.24,0,.25.25,0,0,0-.11.24.27.27,0,0,0-.12-.09.5.5,0,0,0-.21,0,.2.2,0,0,0,.12-.12.19.19,0,0,0-.05-.19.72.72,0,0,1,0-.17A.65.65,0,0,1,3.52,2.07ZM2.63,2s.16-.26.39-.26A.44.44,0,0,1,3.38,2a2.46,2.46,0,0,0-.16.45A.19.19,0,0,0,3,2.54a.22.22,0,0,0,.09.23H3a1.1,1.1,0,0,0-.22,0,.2.2,0,0,0,0-.19c-.05-.11-.11-.1-.11-.1s0,0-.09-.14A.75.75,0,0,1,2.63,2ZM2,2.07a.44.44,0,0,1,.48,0s0,.18,0,.26.05.15.05.15-.08,0-.08.16a.18.18,0,0,0,.14.17l0,0h0a1,1,0,0,0-.17.09.19.19,0,0,0-.08-.21c-.13-.07-.2,0-.2,0l-.11-.12-.2-.16A.37.37,0,0,1,2,2.07Zm-.71.64a.57.57,0,0,1,.44-.2A.65.65,0,0,1,2,2.69c.1.11.08.14.08.14s0,0,0,.14A.18.18,0,0,0,2.32,3a1.32,1.32,0,0,0-.12.19l0,.07A.26.26,0,0,0,2,3.11a.2.2,0,0,0-.21.08,3.18,3.18,0,0,0-.48-.07A.42.42,0,0,1,1.31,2.71ZM1,3.66a.93.93,0,0,1,.31-.39.93.93,0,0,1,.25,0,.69.69,0,0,1,.17.06s0,.12.14.14a.19.19,0,0,0,.18,0,.67.67,0,0,0-.06.2.26.26,0,0,0,0,.15.29.29,0,0,0-.27,0,.29.29,0,0,0-.14.18,1.45,1.45,0,0,1-.36.14S1,3.92,1,3.66Z"/><rect class="cls-6" x="-2" y="5" width="813" height="2"/></g></g></svg>